<svg width="96" height="95" viewBox="0 0 96 95" fill="none" xmlns="http://www.w3.org/2000/svg">
<path d="M42.353 57.2168L57.1765 47.66L42.353 38.1033L42.353 57.2168Z" fill="#3D5AFE"/>
<path d="M65.34 47.5C65.34 22.371 57.5766 2 47.9999 2C38.4233 2 30.6599 22.371 30.6599 47.5C30.6599 72.629 38.4233 93 47.9999 93C57.5766 93 65.34 72.629 65.34 47.5Z" stroke="#3D5AFE" stroke-width="4"/>
<path d="M56.67 62.5452C78.3914 49.9808 92.1183 33.0593 87.33 24.75C82.5417 16.4408 61.0514 19.8903 39.33 32.4548C17.6086 45.0193 3.8817 61.9408 8.67001 70.25C13.4583 78.5593 34.9487 75.1097 56.67 62.5452Z" stroke="#3D5AFE" stroke-width="4"/>
<path d="M39.33 62.5453C61.0514 75.1098 82.5417 78.5593 87.33 70.2501C92.1184 61.9408 78.3914 45.0193 56.6701 32.4548C34.9487 19.8904 13.4584 16.4408 8.67008 24.7501C3.88176 33.0593 17.6087 49.9808 39.33 62.5453Z" stroke="#3D5AFE" stroke-width="4"/>
</svg>
